# AST/ASF file generated using VICON BodyLanguage
# -----------------------------------------------
:version 1.10
:name VICON
:units
  mass 1.0
  length 0.45
  angle deg
:documentation
   .ast/.asf automatically generated from VICON data using
   VICON BodyBuilder and BodyLanguage model FoxedUp or BRILLIANT.MOD
:root
   order TX TY TZ RX RY RZ
   axis XYZ
   position 0 0 0  
   orientation 0 0 0 
:bonedata
  begin
     id 1 
     name lhipjoint
     direction 0.711131 -0.61297 0.344326 
     length 2.29162 
     axis 0 0 0  XYZ
  end
  begin
     id 2 
     name lfemur
     direction 0.34202 -0.939693 0  
     length 6.71424  
     axis 0 0 20  XYZ
    dof rx ry rz
    limits (-160.0 20.0)
           (-70.0 70.0)
           (-60.0 70.0)
  end
  begin
     id 3 
     name ltibia
     direction 0.34202 -0.939693 0   
     length 6.7087   
     axis 0 0 20   XYZ
    dof rx
    limits (-10.0 170.0)
  end
  begin
     id 4 
     name lfoot
     direction 0.0230374 -0.0632947 0.997729   
     length 1.56743   
     axis -90 7.62852e-016 20   XYZ
    dof rx rz
    limits (-45.0 90.0)
           (-70.0 20.0)
  end
  begin
     id 5 
     name ltoes
     direction 1.53585e-011 -4.21885e-011 1   
     length 0.802914   
     axis -90 7.62852e-016 20   XYZ
    dof rx
    limits (-90.0 20.0)
  end
  begin
     id 6 
     name rhipjoint
     direction -0.733192 -0.592884 0.333043   
     length 2.36925  
     axis 0 0 0  XYZ 
  end
  begin
     id 7 
     name rfemur
     direction -0.34202 -0.939693 0   
     length 6.67027   
     axis 0 0 -20   XYZ
    dof rx ry rz
    limits (-160.0 20.0)
           (-70.0 70.0)
           (-70.0 60.0)
  end
  begin
     id 8 
     name rtibia
     direction -0.34202 -0.939693 0   
     length 6.6862   
     axis 0 0 -20   XYZ
    dof rx
    limits (-10.0 170.0)
 end
 begin
     id 9 
     name rfoot
     direction -0.0949739 -0.260939 0.960672   
     length 1.67698  
     axis -90 -7.62852e-016 -20   XYZ
    dof rx rz
    limits (-45.0 90.0)
           (-20.0 70.0)
  end
  begin
     id 10 
     name rtoes
     direction -1.5353e-011 -4.21868e-011 1   
     length 0.846298   
     axis -90 -7.62852e-016 -20   XYZ
    dof rx
    limits (-90.0 20.0)
  end
  begin
     id 11 
     name lowerback
     direction -0.0206828 0.999785 -0.00109866   
     length 2.04382   
     axis 0 0 0   XYZ
    dof rx ry rz
    limits (-20.0 45.0)
           (-30.0 30.0)
           (-30.0 30.0)
  end
  begin
     id 12 
     name upperback
     direction -0.0105003 0.999727 -0.0208904   
     length 2.04538   
     axis 0 0 0   XYZ
    dof rx ry rz
    limits (-20.0 45.0)
           (-30.0 30.0)
           (-30.0 30.0)
  end
  begin
     id 13 
     name thorax
     direction -0.000416255 0.999808 -0.0196023   
     length 2.0399   
     axis 0 0 0   XYZ
    dof rx ry rz
    limits (-20.0 45.0)
           (-30.0 30.0)
           (-30.0 30.0)
  end
  begin
     id 14 
     name lowerneck
     direction 0.0627861 0.989205 0.13241   
     length 1.46207   
     axis 0 0 0   XYZ
    dof rx ry rz
    limits (-20.0 45.0)
           (-30.0 30.0)
           (-30.0 30.0)
  end
  begin
     id 15 
     name upperneck
     direction 0.00627179 0.994526 0.104303   
     length 1.41419   
     axis 0 0 0   XYZ
    dof rx ry rz
    limits (-20.0 45.0)
           (-30.0 30.0)
           (-30.0 30.0)
  end
  begin
     id 16
     name head
     direction -0.00443838 0.999688 0.0245968  
     length 1.50718  
     axis 0 0 0   XYZ
    dof rx ry rz
    limits (-20.0 45.0)
           (-30.0 30.0)
           (-30.0 30.0)
  end
  begin
     id 17 
     name lclavicle
     direction 0.758742 0.650995 -0.0227258  
     length 2.86888  
     axis 0 0 0   XYZ
    dof ry rz
    limits (-20.0 10.0)
           (0.0 20.0)
  end
  begin
     id 18 
     name lhumerus
     direction 1 -4.48962e-011 1.06664e-027   
     length 4.65776   
     axis -180 -30 -90   XYZ
    dof rx ry rz
    limits (-60.0 90.0)
           (-90.0 90.0)
           (-90.0 90.0)
  end
  begin
     id 19
     name lradius
     direction 1 -4.48968e-011 1.40404e-026   
     length 3.55539   
     axis -180 -30 -90   XYZ
    dof rx
    limits (-10.0 170.0)
  end
  begin
     id 20
     name lwrist
     direction 1 -4.48976e-011 3.32647e-026   
     length 1.77769   
     axis -2.20186e-014 90 90   XYZ
    dof ry
    limits (-180.0 0.0)
 end
  begin
     id 21 
     name lhand
     direction 1 -4.48982e-011 6.65293e-026   
     length 0.707264   
     axis -4.24514e-014 90 90   XYZ
    dof rx rz
    limits (-90.0 90.0)
           (-45.0 45.0)
  end
  begin
     id 22 
     name lfingers
     direction 1 -4.48966e-011 1.33059e-025   
     length 0.570215   
     axis -8.49028e-014 90 90   XYZ
    dof rx
    limits (0.0 90.0)
  end
  begin
     id 23
     name lthumb
     direction 0.707107 -6.3493e-011 0.707107   
     length 0.818718   
     axis -90 45 2.85299e-015   XYZ
    dof rx rz
    limits (-45.0 45.0)
           (-45.0 45.0)
  end
  begin
     id 24 
     name rclavicle
     direction -0.870343 0.482028 -0.100759   
     length 3.2251  
     axis 0 0 0   XYZ 
    dof ry rz
    limits (-10.0 20.0)
           (-20.0 0.0)
  end
  begin
     id 25 
     name rhumerus
     direction -1 -4.48974e-011 -9.45849e-028  
     length 4.71925   
     axis -180 30 90   XYZ
    dof rx ry rz
    limits (-90.0 60.0)
           (-90.0 90.0)
           (-90.0 90.0)
  end
  begin
     id 26 
     name rradius
     direction -1 -4.48965e-011 1.17607e-026   
     length 3.5699   
     axis -180 30 90   XYZ
    dof rx
    limits (-10.0 170.0)
  end
  begin
     id 27 
     name rwrist
     direction -1 -4.48968e-011 3.32647e-026   
     length 1.78495   
     axis -2.20186e-014 -90 -90   XYZ
    dof ry
    limits (-180.0 0.0)
  end
  begin
     id 28
     name rhand
     direction -1 -4.48995e-011 6.65293e-026   
     length 0.507757   
     axis -4.24514e-014 -90 -90   XYZ
    dof rx rz
    limits (-90.0 90.0)
           (-45.0 45.0)
  end
  begin
     id 29
     name rfingers
     direction -1 -4.48864e-011 1.33059e-025   
     length 0.409367   
     axis -8.49028e-014 -90 -90   XYZ
    dof rx
    limits (0.0 90.0)
  end
  begin
     id 30
     name rthumb
     direction -0.707107 -6.3494e-011 0.707107   
     length 0.587771   
     axis -90 -45 -2.85299e-015   XYZ
    dof rx rz
    limits (-45.0 45.0)
           (-45.0 45.0)
  end
:hierarchy
  begin
    root lhipjoint rhipjoint lowerback
    lhipjoint lfemur
    lfemur ltibia
    ltibia lfoot
    lfoot ltoes
    rhipjoint rfemur
    rfemur rtibia
    rtibia rfoot
    rfoot rtoes
    lowerback upperback
    upperback thorax
    thorax lowerneck lclavicle rclavicle
    lowerneck upperneck
    upperneck head
    lclavicle lhumerus
    lhumerus lradius
    lradius lwrist
    lwrist lhand lthumb
    lhand lfingers
    rclavicle rhumerus
    rhumerus rradius
    rradius rwrist
    rwrist rhand rthumb
    rhand rfingers
  end

#!OML:ASF E:\Steps\Project 1\Capture day 1\Session 2\Subject.ASF
:FULLY-SPECIFIED
:DEGREES
1
root 8.70434 16.3191 30.4822 -151.922 0.908503 -179.663
lowerback -30.0591 -2.0946 -3.77964
upperback -2.8015 -0.468759 -0.122687
thorax 12.7045 0.0123986 1.83261
lowerneck 0.984781 -2.9093 -3.50476
upperneck -10.7944 -2.98594 6.54626
head -3.53278 -1.38838 2.8935
rclavicle -3.72721e-015 -8.74653e-015
rhumerus -34.2938 -18.7054 -80.1931
rradius 28.5919
rwrist 2.20888
rhand -7.26981 -55.7392
rfingers 7.12502
rthumb 18.6113 -84.8689
lclavicle -3.72721e-015 -8.74653e-015
lhumerus -28.6204 4.86305 82.8864
lradius 22.5339
lwrist -6.79175
lhand -20.2663 -15.1532
lfingers 7.12502
lthumb 6.08273 14.7395
rfemur -25.529 6.92074 18.2285
rtibia 8.08031
rfoot -25.2759 -9.00478
rtoes -24.3716
lfemur -24.7737 -8.79319 -17.5289
ltibia 6.79429
lfoot -8.61892 4.94372
ltoes -35.0893
2
root 8.70653 16.3217 30.4819 -151.926 0.87484 -179.681
lowerback -29.9659 -2.11029 -3.83969
upperback -2.84603 -0.472813 -0.104398
thorax 12.6139 0.0112354 1.88391
lowerneck 1.11041 -2.89347 -3.55017
upperneck -10.8832 -2.95964 6.59039
head -3.58878 -1.37653 2.92261
rclavicle -1.83876e-015 -2.10712e-014
rhumerus -34.3677 -18.6619 -80.1527
rradius 28.6109
rwrist 2.09979
rhand -7.2854 -55.8661
rfingers 7.12502
rthumb 18.5963 -84.9972
lclavicle -1.83876e-015 -2.10712e-014
lhumerus -28.4942 4.63361 82.8464
lradius 22.4694
lwrist -7.42796
lhand -19.5084 -13.6493
lfingers 7.12502
lthumb 6.81438 16.2211
rfemur -25.5052 7.05851 18.174
rtibia 8.03061
rfoot -25.3277 -9.07593
rtoes -22.7488
lfemur -24.8557 -8.40568 -17.6344
ltibia 6.95868
lfoot -8.44903 4.54397
ltoes -34.9109
3
root 8.70754 16.3226 30.4782 -151.997 0.851854 -179.713
lowerback -29.8113 -2.11716 -3.88632
upperback -2.90262 -0.473455 -0.0919266
thorax 12.4823 0.0129149 1.92321
lowerneck 1.30918 -2.89556 -3.59173
upperneck -11.0099 -2.95979 6.62267
head -3.67099 -1.37917 2.95088
rclavicle 3.52843e-015 3.4191e-014
rhumerus -34.5402 -18.6012 -80.0651
rradius 28.6514
rwrist 2.00367
rhand -7.30011 -55.8385
rfingers 7.12502
rthumb 18.5822 -84.971
lclavicle 3.52843e-015 3.4191e-014
lhumerus -28.5211 4.12566 83.0974
lradius 22.3224
lwrist -6.15384
lhand -19.8067 -13.7387
lfingers 7.12502
lthumb 6.52639 16.1408
rfemur -25.4072 6.97654 18.1842
rtibia 8.02427
rfoot -25.3534 -9.05465
rtoes -23.2799
lfemur -24.752 -8.36007 -17.6919
ltibia 6.91907
lfoot -8.37125 4.4735
ltoes -34.7523
4
root 8.70778 16.3222 30.4743 -152.063 0.82728 -179.69
lowerback -29.7197 -2.10699 -3.85855
upperback -2.90606 -0.478813 -0.0887232
thorax 12.4382 0.0106631 1.90979
lowerneck 1.39088 -2.89894 -3.55843
upperneck -11.1035 -2.95605 6.62597
head -3.72028 -1.37858 2.95081
rclavicle -1.14301e-015 -1.03368e-014
rhumerus -34.6092 -18.6296 -80.0316
rradius 28.649
rwrist 2.01364
rhand -7.3143 -55.8313
rfingers 7.12502
rthumb 18.5685 -84.9651
lclavicle -1.14301e-015 -1.03368e-014
lhumerus -28.5183 4.47421 82.8698
lradius 22.388
lwrist -7.44777
lhand -19.1923 -13.1534
lfingers 7.12502
lthumb 7.11951 16.7069
rfemur -25.3135 6.92493 18.2454
rtibia 8.04866
rfoot -25.3876 -8.96564
rtoes -23.1801
lfemur -24.6811 -8.20918 -17.7175
ltibia 6.97667
lfoot -8.41654 4.32121
ltoes -35.6916
5
root 8.70938 16.3219 30.4739 -152.126 0.839409 -179.623
lowerback -29.4866 -2.08875 -3.80708
upperback -3.28344 -0.499964 -0.130024
thorax 12.6941 -0.0119876 1.95095
lowerneck 1.3363 -2.89939 -3.53116
upperneck -11.1619 -2.94562 6.61258
head -3.73123 -1.37035 2.94085
rclavicle -3.52843e-015 -6.36111e-015
rhumerus -34.5563 -18.7007 -80.0548
rradius 28.6162
rwrist 2.09489
rhand -7.32171 -55.8749
rfingers 7.12502
rthumb 18.5614 -85.0093
lclavicle -3.52843e-015 -6.36111e-015
lhumerus -28.6333 4.11315 82.9589
lradius 22.5153
lwrist -7.15239
lhand -19.5003 -13.5679
lfingers 7.12502
lthumb 6.82216 16.3022
rfemur -25.2963 7.12545 18.3119
rtibia 8.16175
rfoot -25.29 -9.18792
rtoes -23.7711
lfemur -24.58 -8.26752 -17.6075
ltibia 6.90063
lfoot -8.41142 4.4507
ltoes -35.3017
6
root 8.71186 16.324 30.4757 -152.13 0.886211 -179.567
lowerback -29.3709 -2.0937 -3.80345
upperback -3.28612 -0.523688 -0.099462
thorax 12.6325 -0.0249548 1.97425
lowerneck 1.26519 -2.90047 -3.51509
upperneck -11.2335 -2.93222 6.6135
head -3.74361 -1.35968 2.93774
rclavicle -2.48481e-016 8.74653e-015
rhumerus -34.5216 -18.7118 -80.0729
rradius 28.59
rwrist 2.19017
rhand -7.33828 -55.9249
rfingers 7.12502
rthumb 18.5454 -85.0608
lclavicle -2.48481e-016 8.74653e-015
lhumerus -28.8529 2.96769 83.4342
lradius 22.6307
lwrist -5.11102
lhand -20.2213 -15.0447
lfingers 7.12502
lthumb 6.1262 14.8467
rfemur -25.428 7.28921 18.3655
rtibia 8.34936
rfoot -19.7251 -9.56013
rtoes -31.9649
lfemur -24.6395 -8.1775 -17.5183
ltibia 6.99596
lfoot -8.41275 4.45476
ltoes -34.5587
7
root 8.71377 16.3261 30.4754 -152.072 0.931598 -179.548
lowerback -29.3891 -2.10714 -3.82689
upperback -3.28379 -0.535814 -0.0800025
thorax 12.6459 -0.0327139 2.00548
lowerneck 1.17344 -2.86219 -3.49103
upperneck -11.2113 -2.88047 6.56801
head -3.72167 -1.33103 2.91278
rclavicle -3.67752e-015 -9.14409e-015
rhumerus -34.488 -18.7362 -80.0664
rradius 28.5514
rwrist 2.28971
rhand -7.3616 -55.9199
rfingers 7.12502
rthumb 18.523 -85.058
lclavicle -3.67752e-015 -9.14409e-015
lhumerus -28.8952 2.89826 83.415
lradius 22.8692
lwrist -5.97964
lhand -20.3836 -13.2167
lfingers 7.12502
lthumb 5.96943 16.6792
rfemur -25.5587 7.29047 18.3775
rtibia 8.43005
rfoot -19.5478 -9.72985
rtoes -34.1959
lfemur -24.7147 -8.26936 -17.4326
ltibia 7.00436
lfoot -8.42231 4.59525
ltoes -35.0435
